<svg version="1.1" xmlns="http://www.w3.org/2000/svg" xmlns:xlink="http://www.w3.org/1999/xlink" width="48" height="48"><defs><linearGradient x1="13.3338" y1="9.11118" x2="58.99083" y2="54.76821" gradientUnits="userSpaceOnUse" id="color-1"><stop offset="0" stop-color="#000000" stop-opacity="0.15"></stop><stop offset="1" stop-color="#000000" stop-opacity="0"></stop></linearGradient><filter id="dropshadow-base"><feColorMatrix type="matrix" values="0 0 0 0 0  0 0 0 0 0  0 0 0 0 0  0 0 0 .8 0"></feColorMatrix> <feOffset dx="0" dy="1"></feOffset> <feGaussianBlur stdDeviation="1"></feGaussianBlur> <feComposite in="SourceGraphic"></feComposite></filter><filter id="dropshadow-banner" x="-10%" y="-10%" width="120%" height="130%"><feColorMatrix type="matrix" values="0 0 0 0 0  0 0 0 0 0  0 0 0 0 0  0 0 0 .4 0"></feColorMatrix> <feOffset dx="0" dy="1"></feOffset> <feGaussianBlur stdDeviation="0.5"></feGaussianBlur> <feComposite in="SourceGraphic"></feComposite></filter></defs><g fill="none" fill-rule="nonzero" stroke="none" stroke-width="none" stroke-linecap="butt" stroke-linejoin="miter" stroke-miterlimit="10" stroke-dasharray="" stroke-dashoffset="0" font-family="none" font-weight="none" font-size="none" text-anchor="none" style="mix-blend-mode: normal"><path d="M7,43c-1.10457,0 -2,-0.89543 -2,-2v-34c0,-1.10457 0.89543,-2 2,-2h34c1.10457,0 2,0.89543 2,2v34c0,1.10457 -0.89543,2 -2,2z" id="base 1 5 1" fill="#9faebd" stroke-width="1"></path><path d="M30.80741,12.10821l0,0l12.19259,12.19259v16.6992c0,1.10457 -0.89543,2 -2,2h-8.25396l-16.41521,-16.41521c-1.85195,-1.85195 -2.99703,-4.41078 -2.99703,-7.23829c0,-5.65501 4.58031,-10.23532 10.23532,-10.23532c2.82751,0 5.38634,1.14508 7.23829,2.99703z" fill="url(#color-1)" stroke-width="1"></path><path d="M20.49852,19.09062c-0.70624,0 -1.27942,0.57318 -1.27942,1.27942c0,0.70624 0.57318,1.27942 1.27942,1.27942c0.70624,0 1.27942,-0.57318 1.27942,-1.27942c0,-0.70624 -0.57318,-1.27942 -1.27942,-1.27942zM26.63972,19.09062c-0.70624,0 -1.27942,0.57318 -1.27942,1.27942c0,0.70624 0.57318,1.27942 1.27942,1.27942c0.70624,0 1.27942,-0.57318 1.27942,-1.27942c0,-0.70624 -0.57318,-1.27942 -1.27942,-1.27942zM23.56912,9.11118c-5.65501,0 -10.23532,4.58031 -10.23532,10.23532c0,5.65501 4.58031,10.23532 10.23532,10.23532c5.65501,0 10.23532,-4.58031 10.23532,-10.23532c0,-5.65501 -4.58031,-10.23532 -10.23532,-10.23532zM23.56912,27.53476c-4.51378,0 -8.18826,-3.67448 -8.18826,-8.18826c0,-0.29682 0.02047,-0.58853 0.05118,-0.87512c2.41042,-1.06959 4.33466,-3.04501 5.3326,-5.49637c1.85259,2.61001 4.8976,4.32442 8.3469,4.32442c0.79324,0 1.566,-0.09724 2.30295,-0.27124c0.22006,0.73694 0.34288,1.51483 0.34288,2.3183c0,4.51378 -3.67448,8.18826 -8.18826,8.18826z" fill="none" stroke-width="0"></path><path d="M21.77794,20.37003c0,0.70624 -0.57318,1.27942 -1.27942,1.27942c-0.70624,0 -1.27942,-0.57318 -1.27942,-1.27942c0,-0.70624 0.57318,-1.27942 1.27942,-1.27942c0.70624,0 1.27942,0.57318 1.27942,1.27942zM27.91913,20.37003c0,0.70624 -0.57318,1.27942 -1.27942,1.27942c-0.70624,0 -1.27942,-0.57318 -1.27942,-1.27942c0,-0.70624 0.57318,-1.27942 1.27942,-1.27942c0.70624,0 1.27942,0.57318 1.27942,1.27942zM33.80444,19.3465c0,5.65501 -4.58031,10.23532 -10.23532,10.23532c-5.65501,0 -10.23532,-4.58031 -10.23532,-10.23532c0,-5.65501 4.58031,-10.23532 10.23532,-10.23532c5.65501,0 10.23532,4.58031 10.23532,10.23532zM31.75738,19.3465c0,-0.80347 -0.12282,-1.58136 -0.34288,-2.3183c-0.73694,0.174 -1.50971,0.27124 -2.30295,0.27124c-3.4493,0 -6.49431,-1.71442 -8.3469,-4.32442c-0.99794,2.45136 -2.92218,4.42678 -5.3326,5.49637c-0.03071,0.28659 -0.05118,0.5783 -0.05118,0.87512c0,4.51378 3.67448,8.18826 8.18826,8.18826c4.51378,0 8.18826,-3.67448 8.18826,-8.18826z" fill="#ffffff" stroke-width="0"></path><path d="M2,24c0,-12.15026 9.84974,-22 22,-22c12.15026,0 22,9.84974 22,22c0,12.15026 -9.84974,22 -22,22c-12.15026,0 -22,-9.84974 -22,-22z" id="base 1 1 1" fill="none" stroke-width="1"></path><g fill="#000000" stroke-width="1" font-family="Roboto, sans-serif" font-weight="400" font-size="14" text-anchor="start"></g><path d="M13,36v-12h30v12z" id="banner 1" fill="#404041" stroke-width="1" filter="url(#dropshadow-banner)"></path><text x="28" y="33" fill="#ffffff" stroke-width="1" font-family="sans-serif" font-weight="bold" font-size="8" text-anchor="middle">DEV</text><rect x="2" y="2" width="44" height="22" fill="none" stroke-width="1"></rect><path d="M2,24v-22h44v22z" fill="none" stroke-width="1"></path><path d="M2,24v-22h44v22z" fill="none" stroke-width="1"></path><path d="M2,24v-22h44v22z" fill="none" stroke-width="1"></path><path d="M2,24v-22h44v22z" fill="none" stroke-width="1"></path></g></svg>